<svg width="596" height="327" viewBox="0 0 596 327" fill="none" xmlns="http://www.w3.org/2000/svg">
<path opacity="0.5" d="M172.666 177.983H97.874V307.756H172.666H193.113H281.041V81.4609H172.666V177.983Z" fill="#E9ECF1"/>
<path opacity="0.5" d="M404.333 185.847V0H295.959V307.76H400.066H404.333H483.898V185.847H404.333Z" fill="#E9ECF1"/>
<path d="M595.267 303.648H0.742188V306.388H595.267V303.648Z" fill="#BCC4D1"/>
<path d="M392.266 113.242H131.001V318.573H392.266V113.242Z" fill="#E9ECF1"/>
<path d="M392.266 136.5H131.001V318.572H392.266V136.5Z" fill="white"/>
<path d="M140.357 128.242C142.463 128.242 144.17 126.535 144.17 124.43C144.17 122.324 142.463 120.617 140.357 120.617C138.252 120.617 136.545 122.324 136.545 124.43C136.545 126.535 138.252 128.242 140.357 128.242Z" fill="white"/>
<path d="M160.383 124.43C160.383 126.535 158.677 128.242 156.571 128.242C154.466 128.242 152.759 126.535 152.759 124.43C152.759 122.324 154.466 120.617 156.571 120.617C158.677 120.617 160.383 122.324 160.383 124.43Z" fill="white"/>
<path d="M176.586 124.43C176.586 126.535 174.879 128.242 172.773 128.242C170.668 128.242 168.961 126.535 168.961 124.43C168.961 122.324 170.668 120.617 172.773 120.617C174.879 120.617 176.586 122.324 176.586 124.43Z" fill="white"/>
<path d="M302.382 131.282H194.851C191.256 131.282 188.343 128.368 188.343 124.774C188.343 121.179 191.256 118.266 194.851 118.266H302.382C305.976 118.266 308.89 121.179 308.89 124.774C308.891 128.368 305.978 131.282 302.382 131.282Z" fill="white"/>
<path d="M376.348 131.282H325.438C321.843 131.282 318.93 128.368 318.93 124.774C318.93 121.179 321.843 118.266 325.438 118.266H376.348C379.942 118.266 382.856 121.179 382.856 124.774C382.856 128.368 379.942 131.282 376.348 131.282Z" fill="white"/>
<path d="M244.798 217.625H151.859V270.084H244.798V217.625Z" fill="#E9ECF1"/>
<path d="M244.798 153.242H151.859V205.701H244.798V153.242Z" fill="#E9ECF1"/>
<path d="M243.987 283.336H152.663V287.446H243.987V283.336Z" fill="#E9ECF1"/>
<path d="M243.987 297.031H152.663V301.141H243.987V297.031Z" fill="#E9ECF1"/>
<path d="M368.246 283.336H276.922V287.446H368.246V283.336Z" fill="#E9ECF1"/>
<path d="M368.246 297.031H276.922V301.141H368.246V297.031Z" fill="#E9ECF1"/>
<path d="M393.641 319.939H129.636V111.867H393.641V319.939ZM132.375 317.2H390.901V114.607H132.375V317.2Z" fill="#BCC4D1"/>
<path d="M456.236 289.04H429.434V63.4688H456.236V289.04ZM432.173 286.3H453.497V66.2085H432.173V286.3Z" fill="#BCC4D1"/>
<path d="M459.902 275.992H425.761V300.457H459.902V275.992Z" fill="#E9ECF1"/>
<path d="M455.008 263.012H431.264C430.72 263.012 430.227 262.69 430.008 262.19C429.79 261.692 429.889 261.111 430.259 260.711L453.089 236.055L455.1 237.915L434.398 260.271H455.007V263.012H455.008Z" fill="#BCC4D1"/>
<path d="M455.008 238.311H431.264C430.72 238.311 430.227 237.989 430.008 237.489C429.79 236.99 429.889 236.409 430.259 236.009L453.089 211.352L455.1 213.212L434.398 235.569H455.007V238.311H455.008Z" fill="#BCC4D1"/>
<path d="M455.008 213.607H431.264C430.72 213.607 430.227 213.286 430.008 212.786C429.79 212.287 429.889 211.706 430.259 211.306L453.089 186.648L455.1 188.509L434.398 210.866H455.007V213.607H455.008Z" fill="#BCC4D1"/>
<path d="M455.008 188.904H431.264C430.72 188.904 430.227 188.582 430.008 188.082C429.79 187.584 429.889 187.003 430.259 186.603L453.089 161.945L455.1 163.806L434.398 186.163H455.007V188.904H455.008Z" fill="#BCC4D1"/>
<path d="M455.008 164.193H431.264C430.72 164.193 430.227 163.871 430.008 163.371C429.79 162.873 429.889 162.292 430.259 161.892L453.089 137.234L455.1 139.095L434.398 161.452H455.007V164.193H455.008Z" fill="#BCC4D1"/>
<path d="M455.008 139.49H431.264C430.72 139.49 430.227 139.168 430.008 138.668C429.79 138.17 429.889 137.589 430.259 137.189L453.089 112.531L455.1 114.392L434.398 136.749H455.007V139.49H455.008Z" fill="#BCC4D1"/>
<path d="M455.008 114.787H431.264C430.72 114.787 430.227 114.465 430.008 113.965C429.79 113.467 429.889 112.886 430.259 112.486L453.089 87.8281L455.1 89.6884L434.398 112.046H455.007V114.787H455.008Z" fill="#BCC4D1"/>
<path d="M455.009 90.084H431.265C430.721 90.084 430.228 89.7621 430.009 89.2621C429.789 88.7621 429.889 88.1827 430.259 87.7826L453.089 63.125L455.1 64.9853L434.399 87.3429H455.007V90.084H455.009Z" fill="#BCC4D1"/>
<path d="M456.187 53.9453H412.736V90.5756H456.187V53.9453Z" fill="#E2020C"/>
<path d="M521.48 53.9453H478.029V74.9851H521.48V53.9453Z" fill="#E2020C"/>
<path d="M520.77 56.6226H306.157C305.401 56.6226 304.787 56.0088 304.787 55.2527C304.787 54.4965 305.401 53.8828 306.157 53.8828H520.77C521.526 53.8828 522.14 54.4965 522.14 55.2527C522.14 56.0088 521.526 56.6226 520.77 56.6226Z" fill="#BCC4D1"/>
<path d="M317.489 61.6406H316.119V150.682H317.489V61.6406Z" fill="#BCC4D1"/>
<path d="M471.547 296.086H414.116V306.852H471.547V296.086Z" fill="#BCC4D1"/>
<path d="M434.625 56.2624C434.45 56.2624 434.275 56.1953 434.142 56.0624L422.698 44.6185H317.785L307.026 55.3774C306.759 55.6446 306.325 55.6446 306.058 55.3774C305.791 55.1103 305.791 54.6761 306.058 54.4089L317.217 43.25H423.264L435.108 55.0939C435.375 55.361 435.375 55.7953 435.108 56.0624C434.976 56.1953 434.801 56.2624 434.625 56.2624Z" fill="#BCC4D1"/>
<path d="M521.672 56.2622C521.425 56.2622 521.187 56.128 521.065 55.8951L509.613 34.0183H481.84L471.071 55.2033C470.9 55.5403 470.486 55.6718 470.151 55.5033C469.814 55.3321 469.68 54.9198 469.851 54.5828L481 32.6484H510.443L522.278 55.2595C522.454 55.5951 522.325 56.0088 521.989 56.1842C521.887 56.2376 521.778 56.2622 521.672 56.2622Z" fill="#BCC4D1"/>
<path d="M321.83 61.6405C321.83 64.4145 319.58 66.6638 316.807 66.6638C314.033 66.6638 311.783 64.4145 311.783 61.6405C311.783 58.8665 314.033 56.6172 316.807 56.6172C319.58 56.6186 321.83 58.8665 321.83 61.6405Z" fill="#E9ECF1"/>
<path d="M370.398 148.903L255.693 159.5L261.155 218.611L375.859 208.014L370.398 148.903Z" fill="#E9ECF1"/>
<path d="M346.498 44.6053C346.204 44.6053 345.932 44.4149 345.843 44.1204C345.732 43.7588 345.936 43.3752 346.298 43.2656L447.713 12.3422C447.868 12.2956 448.032 12.3038 448.179 12.3669L496.246 32.6532C496.594 32.7998 496.758 33.2012 496.61 33.5505C496.464 33.8998 496.061 34.0628 495.713 33.9149L447.876 13.7244L346.698 44.5752C346.63 44.5957 346.565 44.6053 346.498 44.6053Z" fill="#BCC4D1"/>
<path d="M431.958 56.3535C431.796 56.3535 431.632 56.3247 431.472 56.2631C430.765 55.9946 430.41 55.2042 430.679 54.4959L446.647 12.4766C446.864 11.9081 447.425 11.5478 448.04 11.5985C448.648 11.6492 449.151 12.0944 449.27 12.693L457.525 53.674C457.675 54.4151 457.194 55.137 456.453 55.2877C455.713 55.4315 454.99 54.9562 454.839 54.2151L447.521 17.8862L433.237 55.4699C433.031 56.0165 432.51 56.3535 431.958 56.3535Z" fill="#BCC4D1"/>
<path d="M450.694 12.9634C450.694 14.4881 449.459 15.7237 447.934 15.7237C446.409 15.7237 445.174 14.4881 445.174 12.9634C445.174 11.4387 446.409 10.2031 447.934 10.2031C449.459 10.2031 450.694 11.4387 450.694 12.9634Z" fill="#E9ECF1"/>
<path d="M332.065 56.394C331.915 56.394 331.762 56.3447 331.635 56.242L318.184 45.3693V55.5351C318.184 55.9132 317.877 56.2201 317.499 56.2201C317.121 56.2201 316.814 55.9132 316.814 55.5351V43.9351C316.814 43.6707 316.967 43.431 317.205 43.3173C317.442 43.2036 317.725 43.2351 317.931 43.4036L332.498 55.1776C332.793 55.4146 332.838 55.8461 332.599 56.1406C332.464 56.3077 332.265 56.394 332.065 56.394Z" fill="#BCC4D1"/>
<path d="M345.065 56.394C344.914 56.394 344.762 56.3447 344.634 56.242L331.182 45.3693V55.5351C331.182 55.9132 330.876 56.2201 330.497 56.2201C330.119 56.2201 329.812 55.9132 329.812 55.5351V43.9351C329.812 43.6707 329.965 43.431 330.203 43.3173C330.439 43.2036 330.722 43.2351 330.929 43.4036L345.496 55.1776C345.791 55.4146 345.836 55.8461 345.597 56.1406C345.462 56.3077 345.265 56.394 345.065 56.394Z" fill="#BCC4D1"/>
<path d="M358.071 56.394C357.921 56.394 357.769 56.3447 357.641 56.242L344.189 45.3693V55.5351C344.189 55.9132 343.882 56.2201 343.504 56.2201C343.126 56.2201 342.819 55.9132 342.819 55.5351V43.9351C342.819 43.6707 342.971 43.431 343.21 43.3173C343.445 43.2036 343.729 43.2351 343.936 43.4036L358.503 55.1776C358.797 55.4146 358.843 55.8461 358.604 56.1406C358.47 56.3077 358.271 56.394 358.071 56.394Z" fill="#BCC4D1"/>
<path d="M371.082 56.394C370.931 56.394 370.779 56.3447 370.652 56.242L357.201 45.3693V55.5351C357.201 55.9132 356.894 56.2201 356.516 56.2201C356.138 56.2201 355.831 55.9132 355.831 55.5351V43.9351C355.831 43.6707 355.983 43.431 356.221 43.3173C356.458 43.2036 356.741 43.2351 356.948 43.4036L371.515 55.1776C371.809 55.4146 371.854 55.8461 371.616 56.1406C371.479 56.3077 371.282 56.394 371.082 56.394Z" fill="#BCC4D1"/>
<path d="M384.089 56.394C383.938 56.394 383.786 56.3447 383.659 56.242L370.207 45.3693V55.5351C370.207 55.9132 369.9 56.2201 369.522 56.2201C369.144 56.2201 368.837 55.9132 368.837 55.5351V43.9351C368.837 43.6707 368.989 43.431 369.227 43.3173C369.464 43.2036 369.747 43.2351 369.953 43.4036L384.521 55.1776C384.815 55.4146 384.86 55.8461 384.622 56.1406C384.488 56.3077 384.289 56.394 384.089 56.394Z" fill="#BCC4D1"/>
<path d="M397.101 56.394C396.95 56.394 396.798 56.3447 396.671 56.242L383.219 45.3693V55.5351C383.219 55.9132 382.912 56.2201 382.534 56.2201C382.155 56.2201 381.849 55.9132 381.849 55.5351V43.9351C381.849 43.6707 382.001 43.431 382.239 43.3173C382.475 43.2036 382.758 43.2351 382.965 43.4036L397.532 55.1776C397.827 55.4146 397.872 55.8461 397.634 56.1406C397.498 56.3077 397.301 56.394 397.101 56.394Z" fill="#BCC4D1"/>
<path d="M410.108 56.394C409.957 56.394 409.805 56.3447 409.677 56.242L396.225 45.3693V55.5351C396.225 55.9132 395.918 56.2201 395.54 56.2201C395.162 56.2201 394.855 55.9132 394.855 55.5351V43.9351C394.855 43.6707 395.008 43.431 395.246 43.3173C395.482 43.2036 395.765 43.2351 395.972 43.4036L410.539 55.1776C410.834 55.4146 410.879 55.8461 410.64 56.1406C410.505 56.3077 410.308 56.394 410.108 56.394Z" fill="#BCC4D1"/>
<path d="M423.119 56.394C422.969 56.394 422.817 56.3447 422.689 56.242L409.237 45.3693V55.5351C409.237 55.9132 408.93 56.2201 408.552 56.2201C408.174 56.2201 407.867 55.9132 407.867 55.5351V43.9351C407.867 43.6707 408.019 43.431 408.258 43.3173C408.495 43.2036 408.778 43.2351 408.984 43.4036L423.551 55.1776C423.845 55.4146 423.891 55.8461 423.652 56.1406C423.517 56.3077 423.319 56.394 423.119 56.394Z" fill="#BCC4D1"/>
<path d="M500.011 56.3892C499.816 56.3892 499.623 56.307 499.487 56.1467L482.017 35.5288V55.5303C482.017 55.9084 481.71 56.2152 481.332 56.2152C480.954 56.2152 480.647 55.9084 480.647 55.5303V33.6617C480.647 33.374 480.827 33.1179 481.097 33.0192C481.368 32.9192 481.669 32.9987 481.856 33.2192L500.534 55.2618C500.779 55.5495 500.742 55.9823 500.454 56.2262C500.324 56.3358 500.167 56.3892 500.011 56.3892Z" fill="#BCC4D1"/>
<path d="M513.444 56.3961C513.222 56.3961 513.004 56.2879 512.871 56.0892L499.56 35.9467V55.5372C499.56 55.9153 499.253 56.2221 498.875 56.2221C498.497 56.2221 498.19 55.9153 498.19 55.5372V33.6686C498.19 33.3658 498.389 33.1001 498.678 33.0124C498.971 32.9275 499.281 33.0398 499.447 33.2905L514.014 55.3331C514.222 55.6481 514.136 56.0742 513.821 56.2824C513.704 56.3591 513.574 56.3961 513.444 56.3961Z" fill="#BCC4D1"/>
<path d="M321.114 152.515C321.114 154.898 319.182 156.828 316.802 156.828C314.419 156.828 312.489 154.896 312.489 152.515C312.489 150.133 314.421 148.203 316.802 148.203C319.182 148.202 321.114 150.133 321.114 152.515Z" fill="#E2020C"/>
<path d="M85.8247 238.586H83.085V304.338H85.8247V238.586Z" fill="#BCC4D1"/>
<path d="M33.769 238.586H31.0293V304.338H33.769V238.586Z" fill="#BCC4D1"/>
<path d="M92.977 244.75H24.1836V270.093H92.977V244.75Z" fill="#E9ECF1"/>
<path d="M92.9742 270.09V246.117L80.3262 270.09H92.9742Z" fill="#E2020C"/>
<path d="M49.5049 270.093H64.2187L77.5913 244.75H62.8762L49.5049 270.093Z" fill="#E2020C"/>
<path d="M32.0549 244.75L24.1836 259.668V270.093H33.3973L46.7686 244.75H32.0549Z" fill="#E2020C"/>
<path d="M96.0977 285.164H20.7549V287.904H96.0977V285.164Z" fill="#BCC4D1"/>
<path d="M562.545 238.586H559.806V304.338H562.545V238.586Z" fill="#BCC4D1"/>
<path d="M510.49 238.586H507.75V304.338H510.49V238.586Z" fill="#BCC4D1"/>
<path d="M569.694 244.75H500.9V270.093H569.694V244.75Z" fill="#E9ECF1"/>
<path d="M569.693 270.09V246.117L557.044 270.09H569.693Z" fill="#E2020C"/>
<path d="M526.222 270.093H540.935L554.307 244.75H539.593L526.222 270.093Z" fill="#E2020C"/>
<path d="M508.772 244.75L500.9 259.668V270.093H510.114L523.485 244.75H508.772Z" fill="#E2020C"/>
<path d="M572.818 285.164H497.476V287.904H572.818V285.164Z" fill="#BCC4D1"/>
<path d="M126.071 323.273H94.8642C93.8368 323.273 93.0039 324.106 93.0039 325.135C93.0039 326.164 93.8368 326.995 94.8642 326.995H126.071C127.099 326.995 127.931 326.163 127.931 325.135C127.931 324.108 127.099 323.273 126.071 323.273Z" fill="#E2020C"/>
<path d="M113.006 296.747C112.859 296.345 112.478 296.078 112.051 296.078H108.474C108.043 296.078 107.658 296.351 107.515 296.759L97.4453 325.567H123.497L113.006 296.747Z" fill="#E2020C"/>
<path d="M105.654 302.094L104.063 306.643H116.61L114.953 302.094H105.654Z" fill="#ECEFF1"/>
<path d="M101.597 313.688L100.007 318.238H120.829L119.171 313.688H101.597Z" fill="#ECEFF1"/>
<path d="M430.067 323.273H398.86C397.833 323.273 397 324.106 397 325.135C397 326.164 397.833 326.995 398.86 326.995H430.067C431.095 326.995 431.928 326.163 431.928 325.135C431.928 324.108 431.095 323.273 430.067 323.273Z" fill="#E2020C"/>
<path d="M417.002 296.747C416.855 296.345 416.474 296.078 416.047 296.078H412.47C412.039 296.078 411.654 296.351 411.511 296.759L401.441 325.567H427.494L417.002 296.747Z" fill="#E2020C"/>
<path d="M409.65 302.094L408.06 306.643H420.606L418.949 302.094H409.65Z" fill="#ECEFF1"/>
<path d="M405.593 313.688L404.003 318.238H424.825L423.167 313.688H405.593Z" fill="#ECEFF1"/>
<path opacity="0.5" d="M121.415 80.7452C119.13 80.7452 117.018 81.4713 115.282 82.6959V79.6754C115.282 70.9753 108.228 63.9219 99.5284 63.9219C90.8284 63.9219 83.7749 70.9753 83.7749 79.6754V85.6288C82.3489 84.2754 80.4256 83.4398 78.3037 83.4398C73.9091 83.4398 70.3447 87.0028 70.3447 91.3987H132.067C132.068 85.5151 127.298 80.7452 121.415 80.7452Z" fill="#E9ECF1"/>
<path opacity="0.5" d="M248.621 37.8183C246.957 37.8183 245.42 38.3471 244.157 39.2389V37.0389C244.157 30.7046 239.022 25.5703 232.688 25.5703C226.354 25.5703 221.22 30.706 221.22 37.0389V41.3731C220.181 40.3882 218.781 39.78 217.236 39.78C214.036 39.78 211.441 42.3745 211.441 45.5745H256.377C256.377 41.2909 252.905 37.8183 248.621 37.8183Z" fill="#E9ECF1"/>
</svg>
