<svg width="18" height="18" viewBox="0 0 18 18" fill="none" xmlns="http://www.w3.org/2000/svg">
<g id="view_24">
<path id="&#226;&#134;&#179; Icon Color" d="M9 3.75C13.5 3.75 16.5 7.95 16.5 9C16.5 10.05 13.5 14.25 9 14.25C4.5 14.25 1.5 10.05 1.5 9C1.5 7.95 4.5 3.75 9 3.75ZM9 5.25C6.92893 5.25 5.25 6.92893 5.25 9C5.25 11.0711 6.92893 12.75 9 12.75C11.0711 12.75 12.75 11.0711 12.75 9C12.75 6.92893 11.0711 5.25 9 5.25ZM9.00071 7.125C10.0362 7.125 10.8757 7.96447 10.8757 9C10.8757 10.0355 10.0362 10.875 9.00071 10.875C7.96518 10.875 7.12571 10.0355 7.12571 9C7.12571 7.96447 7.96518 7.125 9.00071 7.125Z" fill="#696F79"/>
</g>
</svg>
