<svg width="18" height="18" viewBox="0 0 18 18" fill="none" xmlns="http://www.w3.org/2000/svg">
<path d="M1.5 9C1.5 13.14 4.86 16.5 9 16.5C13.14 16.5 16.5 13.14 16.5 9C16.5 4.86 13.14 1.5 9 1.5C4.86 1.5 1.5 4.86 1.5 9ZM8.0625 13.6875V13.3125C8.0625 12.8983 8.39829 12.5625 8.8125 12.5625H9.1875C9.60171 12.5625 9.9375 12.8983 9.9375 13.3125V13.6875C9.9375 14.1017 9.60171 14.4375 9.1875 14.4375H8.8125C8.39829 14.4375 8.0625 14.1017 8.0625 13.6875ZM10.6275 9.1275C10.2261 9.53451 9.93653 9.88765 9.81438 10.5043C9.80875 10.5327 9.80339 10.5654 9.79829 10.6024C9.74713 10.9735 9.42995 11.25 9.05531 11.25H9C8.60335 11.25 8.2818 10.9284 8.2818 10.5318C8.2818 10.5115 8.28266 10.4911 8.28441 10.4709C8.29064 10.3976 8.29741 10.3423 8.3047 10.3047C8.42071 9.70703 8.71503 9.17069 9.1275 8.7525L10.0575 7.8075C10.335 7.5375 10.5 7.1625 10.5 6.75C10.5 5.925 9.825 5.25 9 5.25C8.47577 5.25 8.01211 5.52254 7.74371 5.93293C7.69623 6.00553 7.65333 6.10282 7.61501 6.22478C7.51682 6.53734 7.22711 6.75 6.89949 6.75H6.75C6.39631 6.75 6.10959 6.46328 6.10959 6.10959C6.10959 6.06198 6.1149 6.01452 6.12543 5.9681C6.17079 5.76788 6.22226 5.60603 6.27985 5.48257C6.75734 4.45896 7.7955 3.75 9 3.75C10.6575 3.75 12 5.0925 12 6.75C12 7.41 11.73 8.01 11.3025 8.4375L10.6275 9.1275Z" fill="#777777"/>
</svg>
