<svg width="20" height="20" viewBox="0 0 20 20" fill="none" xmlns="http://www.w3.org/2000/svg">
<path d="M10.9281 1.73915C11.4513 1.86125 11.9118 2.12713 12.2791 2.51911C12.6514 2.91647 12.8681 3.33747 13.1012 4.16045L13.7046 6.4072C13.8067 6.78825 13.5806 7.17992 13.1995 7.28202C12.8185 7.38412 12.4268 7.15799 12.3247 6.77694L11.7716 4.71284L11.6912 4.42548C11.5376 3.90507 11.4222 3.69397 11.2366 3.49591C11.0624 3.30994 10.8516 3.18825 10.6034 3.13033C10.3391 3.06863 10.0986 3.07425 9.57114 3.20148L9.28205 3.27548L5.61957 4.25683C5.00958 4.42028 4.72404 4.5387 4.54185 4.6734L4.49832 4.70745L4.40265 4.79182C4.21668 4.96608 4.09499 5.17685 4.03706 5.42503C3.97023 5.71138 3.98239 5.96978 4.14259 6.59535L6.45767 15.2385C6.65516 15.9756 6.77614 16.2244 6.99266 16.4554C7.16691 16.6414 7.37769 16.7631 7.62586 16.821C7.86797 16.8775 8.07312 16.8772 8.48928 16.7877L8.63616 16.7545L8.95694 16.6734C9.33938 16.5766 9.72784 16.8082 9.82459 17.1906C9.91443 17.5458 9.72115 17.9061 9.38688 18.0332L9.3073 18.0583L8.97518 18.1422C8.24422 18.3145 7.80177 18.3291 7.30115 18.2122C6.77804 18.0901 6.31751 17.8242 5.95022 17.4322C5.57788 17.0349 5.36124 16.6139 5.12806 15.7909L2.80232 7.11616C2.54901 6.1708 2.51327 5.66849 2.64589 5.10032C2.75442 4.63533 2.97656 4.21979 3.31026 3.86577L3.44063 3.73592L3.56837 3.62325C3.92244 3.32922 4.33783 3.13442 5.06217 2.92867L5.24983 2.87694L8.91231 1.89558C9.85767 1.64227 10.36 1.60653 10.9281 1.73915ZM14.8884 8.57145C16.5287 8.57145 17.8584 9.90105 17.8584 11.5412C17.8584 13.1432 17.2215 13.9401 14.6817 15.9154L13.5057 16.83C13.1249 17.1261 12.5918 17.1261 12.211 16.83L11.035 15.9154C8.49521 13.9401 7.85835 13.1432 7.85835 11.5412C7.85835 9.90105 9.18804 8.57145 10.8283 8.57145C11.5329 8.57145 12.1816 8.77086 12.7604 9.1599L12.8584 9.22859L12.9563 9.1599C13.4825 8.80623 14.0664 8.60927 14.6976 8.57638L14.8884 8.57145ZM14.8884 10C14.3147 10 13.8182 10.2149 13.3633 10.6695L13.111 10.9217C12.9714 11.0609 12.7453 11.0609 12.6057 10.9217L12.3534 10.6695C11.8985 10.2149 11.402 10 10.8283 10C9.977 10 9.28692 10.6901 9.28692 11.5412C9.28692 12.5485 9.70411 13.0706 11.912 14.7877L12.8584 15.5236L14.176 14.4968C16.0013 13.054 16.4052 12.5226 16.4287 11.6289L16.4298 11.5412C16.4298 10.6901 15.7397 10 14.8884 10Z" fill="#99A2AD"/>
</svg>
