<svg width="54" height="54" viewBox="0 0 54 54" fill="none" xmlns="http://www.w3.org/2000/svg">
<rect width="54" height="54" rx="8" fill="url(#paint0_linear_1312_227)"/>
<rect x="0.25" y="0.25" width="53.5" height="53.5" rx="7.75" stroke="white" stroke-opacity="0.22" stroke-width="0.5"/>
<g filter="url(#filter0_d_1312_227)">
<path d="M34.6829 20.3999C34.3629 20.3466 34.0295 20.3333 33.6829 20.3333H20.3495C19.9762 20.3333 19.6162 20.3599 19.2695 20.4133C19.4562 20.0399 19.7229 19.6933 20.0429 19.3733L24.3762 15.0266C26.2029 13.2133 29.1629 13.2133 30.9895 15.0266L33.3229 17.3866C34.1762 18.2266 34.6295 19.2933 34.6829 20.3999Z" fill="white"/>
<path d="M17.681 31C14.7343 31 12.3477 33.3867 12.3477 36.3333C12.3477 37.3333 12.6277 38.28 13.121 39.08C14.041 40.6267 15.7343 41.6667 17.681 41.6667C19.6277 41.6667 21.321 40.6267 22.241 39.08C22.7343 38.28 23.0143 37.3333 23.0143 36.3333C23.0143 33.3867 20.6277 31 17.681 31ZM19.6677 37.3066H18.681V38.3467C18.681 38.8933 18.2277 39.3467 17.681 39.3467C17.1343 39.3467 16.681 38.8933 16.681 38.3467V37.3066H15.6943C15.1477 37.3066 14.6943 36.8533 14.6943 36.3066C14.6943 35.76 15.1477 35.3066 15.6943 35.3066H16.681V34.36C16.681 33.8134 17.1343 33.36 17.681 33.36C18.2277 33.36 18.681 33.8134 18.681 34.36V35.3066H19.6677C20.2143 35.3066 20.6677 35.76 20.6677 36.3066C20.6677 36.8533 20.2277 37.3066 19.6677 37.3066Z" fill="white"/>
<path opacity="0.4" d="M40.3503 27V33.6667C40.3503 37.6667 37.6836 40.3334 33.6836 40.3334H21.1903C21.6036 39.9867 21.9636 39.56 22.2436 39.08C22.7369 38.28 23.0169 37.3334 23.0169 36.3334C23.0169 33.3867 20.6303 31 17.6836 31C16.0836 31 14.6569 31.7067 13.6836 32.8134V27C13.6836 23.3734 15.8703 20.84 19.2703 20.4134C19.6169 20.36 19.9769 20.3334 20.3503 20.3334H33.6836C34.0303 20.3334 34.3636 20.3467 34.6836 20.4C38.1236 20.8 40.3503 23.3467 40.3503 27Z" fill="white"/>
<path d="M40.3503 27.6666H36.3503C34.8836 27.6666 33.6836 28.8666 33.6836 30.3333C33.6836 31.8 34.8836 33 36.3503 33H40.3503" fill="white"/>
</g>
<defs>
<filter id="filter0_d_1312_227" x="7.01562" y="11" width="40" height="40" filterUnits="userSpaceOnUse" color-interpolation-filters="sRGB">
<feFlood flood-opacity="0" result="BackgroundImageFix"/>
<feColorMatrix in="SourceAlpha" type="matrix" values="0 0 0 0 0 0 0 0 0 0 0 0 0 0 0 0 0 0 127 0" result="hardAlpha"/>
<feOffset dy="4"/>
<feGaussianBlur stdDeviation="2"/>
<feComposite in2="hardAlpha" operator="out"/>
<feColorMatrix type="matrix" values="0 0 0 0 0 0 0 0 0 0 0 0 0 0 0 0 0 0 0.25 0"/>
<feBlend mode="normal" in2="BackgroundImageFix" result="effect1_dropShadow_1312_227"/>
<feBlend mode="normal" in="SourceGraphic" in2="effect1_dropShadow_1312_227" result="shape"/>
</filter>
<linearGradient id="paint0_linear_1312_227" x1="49.2632" y1="3.95122" x2="-6.6107" y2="33.4785" gradientUnits="userSpaceOnUse">
<stop stop-color="#FF464C"/>
<stop offset="1" stop-color="#FE1E25"/>
</linearGradient>
</defs>
</svg>
