<svg width="54" height="54" viewBox="0 0 54 54" fill="none" xmlns="http://www.w3.org/2000/svg">
<rect x="-0.0078125" width="54" height="54" rx="8" fill="url(#paint0_linear_1312_233)"/>
<rect x="0.242188" y="0.25" width="53.5" height="53.5" rx="7.75" stroke="white" stroke-opacity="0.22" stroke-width="0.5"/>
<g filter="url(#filter0_d_1312_233)">
<path opacity="0.4" d="M35.5133 28.12V34.6933C35.5133 36.3867 34.1933 38.2 32.6067 38.7333L28.3533 40.1467C27.6067 40.4 26.3933 40.4 25.66 40.1467L21.4067 38.7333C19.8067 38.2 18.5 36.3867 18.5 34.6933L18.5133 28.12L24.4067 31.96C25.8467 32.9067 28.22 32.9067 29.66 31.96L35.5133 28.12Z" fill="white"/>
<path d="M37.6459 19.6133L29.6592 14.3733C28.2192 13.4267 25.8459 13.4267 24.4059 14.3733L16.3792 19.6133C13.8059 21.28 13.8059 25.0533 16.3792 26.7333L18.5126 28.12L24.4059 31.96C25.8459 32.9067 28.2192 32.9067 29.6592 31.96L35.5126 28.12L37.3392 26.92V31C37.3392 31.5467 37.7926 32 38.3392 32C38.8859 32 39.3392 31.5467 39.3392 31V24.44C39.8726 22.72 39.3259 20.72 37.6459 19.6133Z" fill="white"/>
</g>
<defs>
<filter id="filter0_d_1312_233" x="7.00781" y="11" width="40" height="40" filterUnits="userSpaceOnUse" color-interpolation-filters="sRGB">
<feFlood flood-opacity="0" result="BackgroundImageFix"/>
<feColorMatrix in="SourceAlpha" type="matrix" values="0 0 0 0 0 0 0 0 0 0 0 0 0 0 0 0 0 0 127 0" result="hardAlpha"/>
<feOffset dy="4"/>
<feGaussianBlur stdDeviation="2"/>
<feComposite in2="hardAlpha" operator="out"/>
<feColorMatrix type="matrix" values="0 0 0 0 0 0 0 0 0 0 0 0 0 0 0 0 0 0 0.25 0"/>
<feBlend mode="normal" in2="BackgroundImageFix" result="effect1_dropShadow_1312_233"/>
<feBlend mode="normal" in="SourceGraphic" in2="effect1_dropShadow_1312_233" result="shape"/>
</filter>
<linearGradient id="paint0_linear_1312_233" x1="49.2553" y1="3.95122" x2="-6.61851" y2="33.4785" gradientUnits="userSpaceOnUse">
<stop stop-color="#FF464C"/>
<stop offset="1" stop-color="#FE1E25"/>
</linearGradient>
</defs>
</svg>
