<svg width="54" height="54" viewBox="0 0 54 54" fill="none" xmlns="http://www.w3.org/2000/svg">
<rect x="0.00390625" width="54" height="54" rx="8" fill="url(#paint0_linear_1312_267)"/>
<rect x="0.253906" y="0.25" width="53.5" height="53.5" rx="7.75" stroke="white" stroke-opacity="0.22" stroke-width="0.5"/>
<g filter="url(#filter0_d_1312_267)">
<path opacity="0.4" d="M34.3812 21.36C34.2879 21.3466 34.1945 21.3466 34.1012 21.36C32.0345 21.2933 30.3945 19.6 30.3945 17.52C30.3945 15.4 32.1145 13.6666 34.2479 13.6666C36.3679 13.6666 38.1012 15.3866 38.1012 17.52C38.0879 19.6 36.4479 21.2933 34.3812 21.36Z" fill="white"/>
<path opacity="0.4" d="M38.7273 30.6C37.234 31.6 35.1406 31.9734 33.2073 31.72C33.714 30.6267 33.9806 29.4134 33.994 28.1334C33.994 26.8 33.7006 25.5334 33.1406 24.4267C35.114 24.1601 37.2073 24.5334 38.714 25.5334C40.8206 26.92 40.8206 29.2 38.7273 30.6Z" fill="white"/>
<path opacity="0.4" d="M19.595 21.36C19.6883 21.3466 19.7817 21.3466 19.875 21.36C21.9417 21.2933 23.5817 19.6 23.5817 17.52C23.5817 15.4 21.8617 13.6666 19.7283 13.6666C17.6083 13.6666 15.875 15.3866 15.875 17.52C15.8883 19.6 17.5283 21.2933 19.595 21.36Z" fill="white"/>
<path opacity="0.4" d="M19.7413 28.1334C19.7413 29.4267 20.0213 30.6534 20.528 31.7601C18.648 31.9601 16.688 31.5601 15.248 30.6134C13.1413 29.2134 13.1413 26.9334 15.248 25.5334C16.6746 24.5734 18.688 24.1867 20.5813 24.4001C20.0346 25.5201 19.7413 26.7867 19.7413 28.1334Z" fill="white"/>
<path d="M27.1662 32.16C27.0596 32.1467 26.9396 32.1467 26.8196 32.16C24.3663 32.08 22.4062 30.0667 22.4062 27.5867C22.4062 25.0533 24.4463 23 26.9929 23C29.5263 23 31.5796 25.0533 31.5796 27.5867C31.5796 30.0667 29.6329 32.08 27.1662 32.16Z" fill="white"/>
<path d="M22.8342 34.92C20.8209 36.2667 20.8209 38.48 22.8342 39.8134C25.1276 41.3467 28.8876 41.3467 31.1809 39.8134C33.1942 38.4667 33.1942 36.2534 31.1809 34.92C28.9009 33.3867 25.1409 33.3867 22.8342 34.92Z" fill="white"/>
</g>
<defs>
<filter id="filter0_d_1312_267" x="7.00781" y="11" width="40" height="40" filterUnits="userSpaceOnUse" color-interpolation-filters="sRGB">
<feFlood flood-opacity="0" result="BackgroundImageFix"/>
<feColorMatrix in="SourceAlpha" type="matrix" values="0 0 0 0 0 0 0 0 0 0 0 0 0 0 0 0 0 0 127 0" result="hardAlpha"/>
<feOffset dy="4"/>
<feGaussianBlur stdDeviation="2"/>
<feComposite in2="hardAlpha" operator="out"/>
<feColorMatrix type="matrix" values="0 0 0 0 0 0 0 0 0 0 0 0 0 0 0 0 0 0 0.25 0"/>
<feBlend mode="normal" in2="BackgroundImageFix" result="effect1_dropShadow_1312_267"/>
<feBlend mode="normal" in="SourceGraphic" in2="effect1_dropShadow_1312_267" result="shape"/>
</filter>
<linearGradient id="paint0_linear_1312_267" x1="49.2671" y1="3.95122" x2="-6.60679" y2="33.4785" gradientUnits="userSpaceOnUse">
<stop stop-color="#FF464C"/>
<stop offset="1" stop-color="#FE1E25"/>
</linearGradient>
</defs>
</svg>
