<svg width="20" height="20" viewBox="0 0 20 20" fill="none" xmlns="http://www.w3.org/2000/svg">
<path d="M9.63366 1.07286C9.88336 1.03724 10.1211 1.03724 10.3708 1.07286C10.6174 1.10805 10.8232 1.16354 11.2968 1.32142L16.1683 2.94524C16.7516 3.13969 17.1451 3.68561 17.1451 4.30051V10.9285C17.1451 14.3531 15.0891 16.9766 11.1036 18.7445L10.8405 18.8587C10.3049 19.0864 9.69962 19.0864 9.16395 18.8587C5.00747 17.0919 2.85938 14.4303 2.85938 10.9285V4.30051C2.85938 3.68561 3.25285 3.13969 3.83619 2.94524L8.84203 1.27705C9.22286 1.15265 9.41171 1.10453 9.63366 1.07286ZM10.169 2.48711C10.0532 2.47058 9.95131 2.47058 9.83545 2.48711C9.69267 2.50748 9.55827 2.54373 9.15942 2.67668L4.28795 4.30051V10.9285C4.28795 13.7971 6.05299 15.984 9.72281 17.544C9.90136 17.6199 10.1031 17.6199 10.2766 17.5461L10.5294 17.4364C14.0314 15.883 15.7165 13.7327 15.7165 10.9285V4.30051L10.7331 2.63962C10.489 2.55953 10.3611 2.52286 10.2559 2.50189L10.169 2.48711ZM13.8645 7.49489C14.1219 7.75238 14.1417 8.15754 13.9239 8.43775L13.8645 8.50504L9.57874 12.7908C9.32125 13.0482 8.91608 13.068 8.63588 12.8502L8.56858 12.7908L6.24716 10.4693C5.96821 10.1904 5.96821 9.73812 6.24716 9.45917C6.50464 9.20168 6.90981 9.18188 7.19002 9.39975L7.25731 9.45917L9.07366 11.275L12.8543 7.49489C13.1332 7.21594 13.5855 7.21594 13.8645 7.49489Z" fill="#99A2AD"/>
</svg>
