<svg width="20" height="20" viewBox="0 0 20 20" fill="none" xmlns="http://www.w3.org/2000/svg">
<path d="M10.0011 1.42847C14.735 1.42847 18.5725 5.26603 18.5725 9.9999C18.5725 14.7338 14.735 18.5713 10.0011 18.5713C5.26725 18.5713 1.42969 14.7338 1.42969 9.9999C1.42969 5.26603 5.26725 1.42847 10.0011 1.42847ZM10.0011 14.6428C8.51116 14.6428 7.08686 15.0585 5.86055 15.8206C7.02838 16.6532 8.45757 17.1428 10.0011 17.1428C11.5443 17.1428 12.9733 16.6534 14.1411 15.8213C12.915 15.0583 11.4909 14.6428 10.0011 14.6428ZM10.0011 2.85704C6.05622 2.85704 2.85826 6.055 2.85826 9.9999C2.85826 11.8682 3.57558 13.569 4.74985 14.8419C6.27656 13.7915 8.09468 13.2142 10.0011 13.2142C11.9078 13.2142 13.7261 13.7916 15.253 14.8409C16.4269 13.5684 17.144 11.8679 17.144 9.9999C17.144 6.055 13.946 2.85704 10.0011 2.85704ZM10.0011 5.35704C11.8755 5.35704 13.394 6.87549 13.394 8.7499C13.394 10.6243 11.8755 12.1428 10.0011 12.1428C8.12672 12.1428 6.60826 10.6243 6.60826 8.7499C6.60826 6.87549 8.12672 5.35704 10.0011 5.35704ZM10.0011 6.78561C8.91569 6.78561 8.03683 7.66447 8.03683 8.7499C8.03683 9.83532 8.91569 10.7142 10.0011 10.7142C11.0865 10.7142 11.9654 9.83532 11.9654 8.7499C11.9654 7.66447 11.0865 6.78561 10.0011 6.78561Z" fill="#99A2AD"/>
</svg>
