<svg width="23" height="20" viewBox="0 0 23 20" fill="none" xmlns="http://www.w3.org/2000/svg">
<path d="M17.25 20L14.9099 18.382C15.3556 17.778 15.8905 16.9151 16.5145 15.7933C17.094 14.6716 17.5843 13.4203 17.9855 12.0397C18.3866 10.7022 18.5426 9.38626 18.4535 8.0919C18.1415 8.22134 17.874 8.28605 17.6512 8.28605C17.4283 8.3292 17.2054 8.35077 16.9826 8.35077C15.8682 8.35077 14.9099 8.02718 14.1076 7.38C13.2607 6.73282 12.8372 5.76205 12.8372 4.4677C12.8372 3.21648 13.2607 2.15942 14.1076 1.29651C14.9099 0.433609 15.9797 0.00215721 17.3169 0.00215721C19.189 -0.0409889 20.6153 0.563046 21.5959 1.81426C22.532 3.06547 23 4.6187 23 6.47395C23 7.76831 22.7771 9.1921 22.3314 10.7453C21.8857 12.2986 21.2393 13.8734 20.3924 15.4697C19.5455 17.0661 18.4981 18.5762 17.25 20ZM4.41279 20L2.07268 18.382C2.51841 17.778 3.0533 16.9151 3.67733 15.7933C4.25678 14.6716 4.74709 13.4203 5.14826 12.0397C5.54942 10.7022 5.70543 9.38626 5.61628 8.0919C5.30426 8.22134 5.03682 8.28605 4.81395 8.28605C4.59109 8.3292 4.36822 8.35077 4.14535 8.35077C3.03101 8.35077 2.07268 8.02718 1.27035 7.38C0.423452 6.73282 0 5.76205 0 4.4677C0 3.21648 0.423452 2.15942 1.27035 1.29651C2.07268 0.433609 3.14244 0.00215721 4.47965 0.00215721C6.35175 -0.0409889 7.7781 0.563046 8.75872 1.81426C9.69477 3.06547 10.1628 4.6187 10.1628 6.47395C10.1628 7.76831 9.93992 9.1921 9.49419 10.7453C9.04845 12.2986 8.40213 13.8734 7.55523 15.4697C6.70833 17.0661 5.66085 18.5762 4.41279 20Z" fill="#E2020C"/>
</svg>
