<svg width="31" height="31" viewBox="0 0 31 31" fill="none" xmlns="http://www.w3.org/2000/svg">
<path d="M7.75 29L10.9041 26.7349C10.3033 25.8892 9.58236 24.6812 8.74128 23.1107C7.96027 21.5402 7.29942 19.7885 6.75872 17.8556C6.21802 15.9831 6.00775 14.1408 6.12791 12.3287C6.54845 12.5099 6.90891 12.6005 7.2093 12.6005C7.50969 12.6609 7.81008 12.6911 8.11047 12.6911C9.6124 12.6911 10.9041 12.2381 11.9855 11.332C13.1269 10.4259 13.6977 9.06687 13.6977 7.25477C13.6977 5.50307 13.1269 4.02319 11.9855 2.81512C10.9041 1.60705 9.46221 1.00302 7.65988 1.00302C5.13663 0.942616 3.21415 1.78826 1.89244 3.53996C0.630814 5.29166 0 7.46618 0 10.0635C0 11.8756 0.300388 13.8689 0.901163 16.0435C1.50194 18.218 2.37306 20.4227 3.51453 22.6576C4.65601 24.8926 6.06783 27.0067 7.75 29ZM25.0523 29L28.2064 26.7349C27.6056 25.8892 26.8847 24.6812 26.0436 23.1107C25.2626 21.5402 24.6017 19.7885 24.061 17.8556C23.5203 15.9831 23.3101 14.1408 23.4302 12.3287C23.8508 12.5099 24.2112 12.6005 24.5116 12.6005C24.812 12.6609 25.1124 12.6911 25.4128 12.6911C26.9147 12.6911 28.2064 12.2381 29.2878 11.332C30.4293 10.4259 31 9.06687 31 7.25477C31 5.50307 30.4293 4.02319 29.2878 2.81512C28.2064 1.60705 26.7645 1.00302 24.9622 1.00302C22.439 0.942616 20.5165 1.78826 19.1948 3.53996C17.9331 5.29166 17.3023 7.46618 17.3023 10.0635C17.3023 11.8756 17.6027 13.8689 18.2035 16.0435C18.8043 18.218 19.6754 20.4227 20.8169 22.6576C21.9583 24.8926 23.3702 27.0067 25.0523 29Z" fill="#E2020C"/>
</svg>
